<svg xmlns="http://www.w3.org/2000/svg" width="1200" height="436" viewBox="0 0 1200 436" role="img" aria-label="Umer Karachiwala, Backend &amp; DevOps Engineer · Dublin, Ireland. All systems operational · open to backend, platform &amp; DevOps roles. Experience timeline from October 2023 to September 2026.">
  <rect x="0.5" y="0.5" width="1199" height="435" rx="16" fill="#0d1117" stroke="#30363d"/>
  <text x="48" y="74" font-family="-apple-system,BlinkMacSystemFont,'Segoe UI',Helvetica,Arial,sans-serif" font-size="38" font-weight="700" fill="#e6edf3">Umer Karachiwala</text>
  <text x="48" y="108" font-family="-apple-system,BlinkMacSystemFont,'Segoe UI',Helvetica,Arial,sans-serif" font-size="17" fill="#8b949e">Backend &amp; DevOps Engineer · Dublin, Ireland</text>
  <rect x="612.2" y="44" width="539.8" height="34" rx="17" fill="#3fb95026"/><circle cx="634.2" cy="61" r="5" fill="#3fb950"/><circle cx="634.2" cy="61" r="5" fill="none" stroke="#3fb950" stroke-width="2"><animate attributeName="r" values="5;11" dur="1.8s" repeatCount="indefinite"/><animate attributeName="opacity" values="0.8;0" dur="1.8s" repeatCount="indefinite"/></circle><text x="650.2" y="66" font-family="-apple-system,BlinkMacSystemFont,'Segoe UI',Helvetica,Arial,sans-serif" font-size="13.5" font-weight="600" fill="#3fb950">All systems operational · open to backend, platform &amp; DevOps roles</text>
  <line x1="48" y1="140" x2="1152" y2="140" stroke="#30363d"/>
  <text x="48" y="174" font-family="-apple-system,BlinkMacSystemFont,'Segoe UI',Helvetica,Arial,sans-serif" font-size="12" font-weight="600" letter-spacing="1.5" fill="#8b949e">UPTIME</text>
  <text x="48" y="215" font-family="-apple-system,BlinkMacSystemFont,'Segoe UI',Helvetica,Arial,sans-serif" font-size="15" font-weight="600" fill="#e6edf3">Apple · Software Engineer Intern</text>
  <rect x="378.0" y="196" width="13.9" height="28" rx="2" fill="#21262d"/>
  <rect x="394.9" y="196" width="13.9" height="28" rx="2" fill="#21262d"/>
  <rect x="411.7" y="196" width="13.9" height="28" rx="2" fill="#21262d"/>
  <rect x="428.6" y="196" width="13.9" height="28" rx="2" fill="#21262d"/>
  <rect x="445.4" y="196" width="13.9" height="28" rx="2" fill="#21262d"/>
  <rect x="462.3" y="196" width="13.9" height="28" rx="2" fill="#21262d"/>
  <rect x="479.2" y="196" width="13.9" height="28" rx="2" fill="#21262d"/>
  <rect x="496.0" y="196" width="13.9" height="28" rx="2" fill="#21262d"/>
  <rect x="512.9" y="196" width="13.9" height="28" rx="2" fill="#21262d"/>
  <rect x="529.8" y="196" width="13.9" height="28" rx="2" fill="#21262d"/>
  <rect x="546.6" y="196" width="13.9" height="28" rx="2" fill="#21262d"/>
  <rect x="563.5" y="196" width="13.9" height="28" rx="2" fill="#21262d"/>
  <rect x="580.3" y="196" width="13.9" height="28" rx="2" fill="#21262d"/>
  <rect x="597.2" y="196" width="13.9" height="28" rx="2" fill="#21262d"/>
  <rect x="614.1" y="196" width="13.9" height="28" rx="2" fill="#21262d"/>
  <rect x="630.9" y="196" width="13.9" height="28" rx="2" fill="#21262d"/>
  <rect x="647.8" y="196" width="13.9" height="28" rx="2" fill="#21262d"/>
  <rect x="664.6" y="196" width="13.9" height="28" rx="2" fill="#21262d"/>
  <rect x="681.5" y="196" width="13.9" height="28" rx="2" fill="#21262d"/>
  <rect x="698.4" y="196" width="13.9" height="28" rx="2" fill="#21262d"/>
  <rect x="715.2" y="196" width="13.9" height="28" rx="2" fill="#21262d"/>
  <rect x="732.1" y="196" width="13.9" height="28" rx="2" fill="#21262d"/>
  <rect x="748.9" y="196" width="13.9" height="28" rx="2" fill="#21262d"/>
  <rect x="765.8" y="196" width="13.9" height="28" rx="2" fill="#21262d"/>
  <rect x="782.7" y="196" width="13.9" height="28" rx="2" fill="#21262d"/>
  <rect x="799.5" y="196" width="13.9" height="28" rx="2" fill="#21262d"/>
  <rect x="816.4" y="196" width="13.9" height="28" rx="2" fill="#21262d"/>
  <rect x="833.2" y="196" width="13.9" height="28" rx="2" fill="#21262d"/>
  <rect x="850.1" y="196" width="13.9" height="28" rx="2" fill="#21262d"/>
  <rect x="867.0" y="196" width="13.9" height="28" rx="2" fill="#3fb950"/>
  <rect x="883.8" y="196" width="13.9" height="28" rx="2" fill="#3fb950"/>
  <rect x="900.7" y="196" width="13.9" height="28" rx="2" fill="#3fb950"/>
  <rect x="917.6" y="196" width="13.9" height="28" rx="2" fill="#3fb950"/>
  <rect x="934.4" y="196" width="13.9" height="28" rx="2" fill="#3fb950"/>
  <rect x="951.3" y="196" width="13.9" height="28" rx="2" fill="#3fb950"/>
  <rect x="968.1" y="196" width="13.9" height="28" rx="2" fill="#3fb950"/>
  <text x="1152" y="215" text-anchor="end" font-family="-apple-system,BlinkMacSystemFont,'Segoe UI',Helvetica,Arial,sans-serif" font-size="13.5" fill="#8b949e">Mar – Sep 2026</text>
  <text x="48" y="265" font-family="-apple-system,BlinkMacSystemFont,'Segoe UI',Helvetica,Arial,sans-serif" font-size="15" font-weight="600" fill="#e6edf3">ATU · MSc Computing (DevOps)</text>
  <rect x="378.0" y="246" width="13.9" height="28" rx="2" fill="#21262d"/>
  <rect x="394.9" y="246" width="13.9" height="28" rx="2" fill="#21262d"/>
  <rect x="411.7" y="246" width="13.9" height="28" rx="2" fill="#21262d"/>
  <rect x="428.6" y="246" width="13.9" height="28" rx="2" fill="#21262d"/>
  <rect x="445.4" y="246" width="13.9" height="28" rx="2" fill="#21262d"/>
  <rect x="462.3" y="246" width="13.9" height="28" rx="2" fill="#21262d"/>
  <rect x="479.2" y="246" width="13.9" height="28" rx="2" fill="#21262d"/>
  <rect x="496.0" y="246" width="13.9" height="28" rx="2" fill="#21262d"/>
  <rect x="512.9" y="246" width="13.9" height="28" rx="2" fill="#21262d"/>
  <rect x="529.8" y="246" width="13.9" height="28" rx="2" fill="#21262d"/>
  <rect x="546.6" y="246" width="13.9" height="28" rx="2" fill="#21262d"/>
  <rect x="563.5" y="246" width="13.9" height="28" rx="2" fill="#21262d"/>
  <rect x="580.3" y="246" width="13.9" height="28" rx="2" fill="#21262d"/>
  <rect x="597.2" y="246" width="13.9" height="28" rx="2" fill="#21262d"/>
  <rect x="614.1" y="246" width="13.9" height="28" rx="2" fill="#21262d"/>
  <rect x="630.9" y="246" width="13.9" height="28" rx="2" fill="#21262d"/>
  <rect x="647.8" y="246" width="13.9" height="28" rx="2" fill="#21262d"/>
  <rect x="664.6" y="246" width="13.9" height="28" rx="2" fill="#21262d"/>
  <rect x="681.5" y="246" width="13.9" height="28" rx="2" fill="#21262d"/>
  <rect x="698.4" y="246" width="13.9" height="28" rx="2" fill="#21262d"/>
  <rect x="715.2" y="246" width="13.9" height="28" rx="2" fill="#21262d"/>
  <rect x="732.1" y="246" width="13.9" height="28" rx="2" fill="#21262d"/>
  <rect x="748.9" y="246" width="13.9" height="28" rx="2" fill="#21262d"/>
  <rect x="765.8" y="246" width="13.9" height="28" rx="2" fill="#3fb950"/>
  <rect x="782.7" y="246" width="13.9" height="28" rx="2" fill="#3fb950"/>
  <rect x="799.5" y="246" width="13.9" height="28" rx="2" fill="#3fb950"/>
  <rect x="816.4" y="246" width="13.9" height="28" rx="2" fill="#3fb950"/>
  <rect x="833.2" y="246" width="13.9" height="28" rx="2" fill="#3fb950"/>
  <rect x="850.1" y="246" width="13.9" height="28" rx="2" fill="#3fb950"/>
  <rect x="867.0" y="246" width="13.9" height="28" rx="2" fill="#3fb950"/>
  <rect x="883.8" y="246" width="13.9" height="28" rx="2" fill="#3fb950"/>
  <rect x="900.7" y="246" width="13.9" height="28" rx="2" fill="#3fb950"/>
  <rect x="917.6" y="246" width="13.9" height="28" rx="2" fill="#3fb950"/>
  <rect x="934.4" y="246" width="13.9" height="28" rx="2" fill="#3fb950"/>
  <rect x="951.3" y="246" width="13.9" height="28" rx="2" fill="#3fb950"/>
  <rect x="968.1" y="246" width="13.9" height="28" rx="2" fill="#3fb950"/>
  <text x="1152" y="265" text-anchor="end" font-family="-apple-system,BlinkMacSystemFont,'Segoe UI',Helvetica,Arial,sans-serif" font-size="13.5" fill="#8b949e">Sep 2025 – Sep 2026</text>
  <text x="48" y="315" font-family="-apple-system,BlinkMacSystemFont,'Segoe UI',Helvetica,Arial,sans-serif" font-size="15" font-weight="600" fill="#e6edf3">WebOsmotic · Jr Backend Engineer</text>
  <rect x="378.0" y="296" width="13.9" height="28" rx="2" fill="#21262d"/>
  <rect x="394.9" y="296" width="13.9" height="28" rx="2" fill="#21262d"/>
  <rect x="411.7" y="296" width="13.9" height="28" rx="2" fill="#21262d"/>
  <rect x="428.6" y="296" width="13.9" height="28" rx="2" fill="#21262d"/>
  <rect x="445.4" y="296" width="13.9" height="28" rx="2" fill="#21262d"/>
  <rect x="462.3" y="296" width="13.9" height="28" rx="2" fill="#21262d"/>
  <rect x="479.2" y="296" width="13.9" height="28" rx="2" fill="#3fb950"/>
  <rect x="496.0" y="296" width="13.9" height="28" rx="2" fill="#3fb950"/>
  <rect x="512.9" y="296" width="13.9" height="28" rx="2" fill="#3fb950"/>
  <rect x="529.8" y="296" width="13.9" height="28" rx="2" fill="#3fb950"/>
  <rect x="546.6" y="296" width="13.9" height="28" rx="2" fill="#3fb950"/>
  <rect x="563.5" y="296" width="13.9" height="28" rx="2" fill="#3fb950"/>
  <rect x="580.3" y="296" width="13.9" height="28" rx="2" fill="#3fb950"/>
  <rect x="597.2" y="296" width="13.9" height="28" rx="2" fill="#3fb950"/>
  <rect x="614.1" y="296" width="13.9" height="28" rx="2" fill="#3fb950"/>
  <rect x="630.9" y="296" width="13.9" height="28" rx="2" fill="#3fb950"/>
  <rect x="647.8" y="296" width="13.9" height="28" rx="2" fill="#3fb950"/>
  <rect x="664.6" y="296" width="13.9" height="28" rx="2" fill="#3fb950"/>
  <rect x="681.5" y="296" width="13.9" height="28" rx="2" fill="#3fb950"/>
  <rect x="698.4" y="296" width="13.9" height="28" rx="2" fill="#3fb950"/>
  <rect x="715.2" y="296" width="13.9" height="28" rx="2" fill="#3fb950"/>
  <rect x="732.1" y="296" width="13.9" height="28" rx="2" fill="#21262d"/>
  <rect x="748.9" y="296" width="13.9" height="28" rx="2" fill="#21262d"/>
  <rect x="765.8" y="296" width="13.9" height="28" rx="2" fill="#21262d"/>
  <rect x="782.7" y="296" width="13.9" height="28" rx="2" fill="#21262d"/>
  <rect x="799.5" y="296" width="13.9" height="28" rx="2" fill="#21262d"/>
  <rect x="816.4" y="296" width="13.9" height="28" rx="2" fill="#21262d"/>
  <rect x="833.2" y="296" width="13.9" height="28" rx="2" fill="#21262d"/>
  <rect x="850.1" y="296" width="13.9" height="28" rx="2" fill="#21262d"/>
  <rect x="867.0" y="296" width="13.9" height="28" rx="2" fill="#21262d"/>
  <rect x="883.8" y="296" width="13.9" height="28" rx="2" fill="#21262d"/>
  <rect x="900.7" y="296" width="13.9" height="28" rx="2" fill="#21262d"/>
  <rect x="917.6" y="296" width="13.9" height="28" rx="2" fill="#21262d"/>
  <rect x="934.4" y="296" width="13.9" height="28" rx="2" fill="#21262d"/>
  <rect x="951.3" y="296" width="13.9" height="28" rx="2" fill="#21262d"/>
  <rect x="968.1" y="296" width="13.9" height="28" rx="2" fill="#21262d"/>
  <text x="1152" y="315" text-anchor="end" font-family="-apple-system,BlinkMacSystemFont,'Segoe UI',Helvetica,Arial,sans-serif" font-size="13.5" fill="#8b949e">Apr 2024 – Jun 2025</text>
  <text x="48" y="365" font-family="-apple-system,BlinkMacSystemFont,'Segoe UI',Helvetica,Arial,sans-serif" font-size="15" font-weight="600" fill="#e6edf3">WebOsmotic · Software Engineer Intern</text>
  <rect x="378.0" y="346" width="13.9" height="28" rx="2" fill="#3fb950"/>
  <rect x="394.9" y="346" width="13.9" height="28" rx="2" fill="#3fb950"/>
  <rect x="411.7" y="346" width="13.9" height="28" rx="2" fill="#3fb950"/>
  <rect x="428.6" y="346" width="13.9" height="28" rx="2" fill="#3fb950"/>
  <rect x="445.4" y="346" width="13.9" height="28" rx="2" fill="#3fb950"/>
  <rect x="462.3" y="346" width="13.9" height="28" rx="2" fill="#3fb950"/>
  <rect x="479.2" y="346" width="13.9" height="28" rx="2" fill="#21262d"/>
  <rect x="496.0" y="346" width="13.9" height="28" rx="2" fill="#21262d"/>
  <rect x="512.9" y="346" width="13.9" height="28" rx="2" fill="#21262d"/>
  <rect x="529.8" y="346" width="13.9" height="28" rx="2" fill="#21262d"/>
  <rect x="546.6" y="346" width="13.9" height="28" rx="2" fill="#21262d"/>
  <rect x="563.5" y="346" width="13.9" height="28" rx="2" fill="#21262d"/>
  <rect x="580.3" y="346" width="13.9" height="28" rx="2" fill="#21262d"/>
  <rect x="597.2" y="346" width="13.9" height="28" rx="2" fill="#21262d"/>
  <rect x="614.1" y="346" width="13.9" height="28" rx="2" fill="#21262d"/>
  <rect x="630.9" y="346" width="13.9" height="28" rx="2" fill="#21262d"/>
  <rect x="647.8" y="346" width="13.9" height="28" rx="2" fill="#21262d"/>
  <rect x="664.6" y="346" width="13.9" height="28" rx="2" fill="#21262d"/>
  <rect x="681.5" y="346" width="13.9" height="28" rx="2" fill="#21262d"/>
  <rect x="698.4" y="346" width="13.9" height="28" rx="2" fill="#21262d"/>
  <rect x="715.2" y="346" width="13.9" height="28" rx="2" fill="#21262d"/>
  <rect x="732.1" y="346" width="13.9" height="28" rx="2" fill="#21262d"/>
  <rect x="748.9" y="346" width="13.9" height="28" rx="2" fill="#21262d"/>
  <rect x="765.8" y="346" width="13.9" height="28" rx="2" fill="#21262d"/>
  <rect x="782.7" y="346" width="13.9" height="28" rx="2" fill="#21262d"/>
  <rect x="799.5" y="346" width="13.9" height="28" rx="2" fill="#21262d"/>
  <rect x="816.4" y="346" width="13.9" height="28" rx="2" fill="#21262d"/>
  <rect x="833.2" y="346" width="13.9" height="28" rx="2" fill="#21262d"/>
  <rect x="850.1" y="346" width="13.9" height="28" rx="2" fill="#21262d"/>
  <rect x="867.0" y="346" width="13.9" height="28" rx="2" fill="#21262d"/>
  <rect x="883.8" y="346" width="13.9" height="28" rx="2" fill="#21262d"/>
  <rect x="900.7" y="346" width="13.9" height="28" rx="2" fill="#21262d"/>
  <rect x="917.6" y="346" width="13.9" height="28" rx="2" fill="#21262d"/>
  <rect x="934.4" y="346" width="13.9" height="28" rx="2" fill="#21262d"/>
  <rect x="951.3" y="346" width="13.9" height="28" rx="2" fill="#21262d"/>
  <rect x="968.1" y="346" width="13.9" height="28" rx="2" fill="#21262d"/>
  <text x="1152" y="365" text-anchor="end" font-family="-apple-system,BlinkMacSystemFont,'Segoe UI',Helvetica,Arial,sans-serif" font-size="13.5" fill="#8b949e">Oct 2023 – Mar 2024</text>
  <text x="378" y="400" font-family="-apple-system,BlinkMacSystemFont,'Segoe UI',Helvetica,Arial,sans-serif" font-size="12" fill="#8b949e">Oct 2023</text>
  <text x="982.0" y="400" text-anchor="end" font-family="-apple-system,BlinkMacSystemFont,'Segoe UI',Helvetica,Arial,sans-serif" font-size="12" fill="#8b949e">Sep 2026</text>
</svg>
